<svg xmlns="http://www.w3.org/2000/svg" width="789" height="688" viewBox="0 0 789 688">
  <g fill="none" fill-rule="evenodd" transform="translate(2)">
    <g stroke="#CECECE" stroke-linecap="round" stroke-linejoin="round" transform="translate(174 359)">
      <path stroke-width="6" d="M169.7,42.5 L308.7,156.7 C315.6,162.4 325.6,162.4 332.5,156.7 L332.5,156.7 C341.6,149.2 341.6,135.2 332.5,127.8 L182.5,4.6 C175.1,-1.5 164.4,-1.5 156.9,4.6 L7,127.7 C-2.1,135.2 -2.1,149.2 7,156.6 L7,156.6 C13.9,162.3 23.9,162.3 30.8,156.6 L169.7,42.5 Z"/>
      <polygon stroke-width="6" points="169.7 42.5 55.5 136.3 65.4 325.4 274.1 325.4 283.9 136.3"/>
      <path stroke-width="6" d="M169.7 164.2L169.7 164.2C129 164.2 97.1 191.5 98.3 224.2L102.1 325.4 237.3 325.4 241.1 224.2C242.3 191.5 210.4 164.2 169.7 164.2zM149 131C150.9 135.4 156 137.4 160.4 135.6 163.2 134.5 166.4 133.8 169.7 133.8 173 133.8 176.2 134.4 179 135.6 183.4 137.4 188.5 135.4 190.4 131 191.3 128.9 191.8 126.6 191.8 124.3 191.8 113.7 181.9 105.2 169.6 105.2 157.3 105.2 147.4 113.8 147.4 124.3 147.6 126.7 148 128.9 149 131z"/>
      <ellipse cx="143.048" cy="96.596" stroke-width="6" rx="7.8" ry="6.6" transform="rotate(-38.128 143.048 96.596)"/>
      <ellipse cx="169.7" cy="87.6" stroke-width="6" rx="10.2" ry="6.9"/>
      <ellipse cx="193.936" cy="99.281" stroke-width="6" rx="6.6" ry="7.8" transform="rotate(-51.872 193.936 99.28)"/>
    </g>
    <path stroke="#00354C" stroke-linecap="round" stroke-linejoin="round" stroke-width="6" d="M76.5,684.2 L88,684.2"/>
    <path fill="#D1D1D1" fill-rule="nonzero" d="M383.2,525.8 C386.1,508.4 393,488.4 401.2,471.7 C389.8,490.3 379.5,516.8 375.8,539.2 C370.1,573.3 372,604.6 380.7,624.5 L385.9,605.7 C379.1,585.8 378,557 383.2,525.8 Z"/>
    <g transform="translate(69 379)">
      <path fill="#001932" fill-rule="nonzero" d="M75.7032982,0.144480477 C47.1032982,-1.85551952 46.1032982,31.1444805 51.1032982,53.1444805 C53.1032982,65.1444805 40.1032982,72.1444805 34.2032982,81.3444805 C31.7032982,85.3444805 29.4032982,90.0444805 28.2032982,96.0444805 C24.9032982,111.94448 34.3032982,125.44448 35.8032982,139.94448 C36.2032982,143.54448 36.1032982,147.24448 35.2032982,151.04448 C34.1032982,155.14448 32.1032982,159.14448 30.1032982,163.14448 C14.1032982,181.14448 -11.8967018,202.14448 6.10329823,226.14448 C9.40329823,230.34448 13.0032982,234.04448 16.9032982,237.34448 C48.1032982,264.14448 95.1032982,262.14448 131.103298,245.14448 C144.103298,238.14448 157.103298,228.14448 160.103298,213.14448 C162.103298,197.14448 155.103298,182.14448 144.403298,171.54448 C141.203298,168.04448 137.703298,164.74448 134.103298,161.84448 C131.503298,157.84448 129.903298,154.04448 129.103298,150.34448 C127.203298,141.14448 130.103298,132.54448 132.903298,123.84448 C134.303298,119.54448 135.603298,115.14448 136.303298,110.64448 C140.103298,88.0444805 118.103298,74.0444805 106.103298,58.0444805 C101.103298,51.0444805 103.103298,42.0444805 105.103298,34.0444805 C109.103298,15.0444805 94.1032982,-0.955519523 76.2032982,0.0444804769"/>
      <path stroke="#FFF" stroke-linecap="round" stroke-linejoin="round" stroke-width="6" d="M78.9 69.9C74.3 91.6 73.3 112.9 73.9 134.2 74.1 139.5 87.8 228.2 79 267 78.8 272.6 78.8 275.9 78.8 275.9M93.8 153.8L78.9 175.3"/>
      <path fill="#001932" fill-rule="nonzero" d="M102.8,308.2 L56.8,308.2 C56.2,308.2 55.7,307.8 55.6,307.2 L43.8,257.4 L115.8,257.4 L104,307.3 C103.9,307.8 103.4,308.2 102.8,308.2 Z"/>
      <path stroke="#5F90C2" d="M51 285L108.6 285M51.9 288.6L107.7 288.6" opacity=".68"/>
    </g>
    <path stroke="#00354C" stroke-linecap="round" stroke-linejoin="round" stroke-width="6" d="M391.4,673 L391.4,684"/>
    <ellipse cx="78.3" cy="489.2" fill="#001932" fill-rule="nonzero" rx="10.7" ry="17.4"/>
    <rect width="14" height="14" x="677.409" y="570.228" fill="#001932" fill-rule="nonzero" transform="rotate(45 684.409 577.228)"/>
    <rect width="9" height="9" x="613.099" y="282.964" fill="#001932" fill-rule="nonzero" transform="rotate(45 617.599 287.464)"/>
    <g stroke="#00354C" stroke-linecap="round" stroke-linejoin="round" stroke-width="3" transform="translate(94 156)">
      <g transform="translate(20)">
        <path d="M1.1.3L1.1 14.6M1.1 32.7L1.1 47"/>
      </g>
      <g transform="translate(0 12)">
        <path d="M.8 0L13.2 7.1M29 16.2L41.4 23.3"/>
      </g>
      <g transform="translate(0 12)">
        <path d="M.8 23.3L13.2 16.2M29 7.1L41.4 0"/>
      </g>
    </g>
    <g stroke="#00354C" stroke-linecap="round" stroke-linejoin="round" stroke-width="3" transform="translate(740 217)">
      <path d="M1.1.4L1.1 10.3M1.1 22.9L1.1 32.9"/>
    </g>
    <g stroke="#00354C" stroke-linecap="round" stroke-linejoin="round" stroke-width="3" transform="translate(727 225)">
      <path d="M.1.5L8.7 5.5M19.6 11.8L28.2 16.7"/>
    </g>
    <g stroke="#00354C" stroke-linecap="round" stroke-linejoin="round" stroke-width="3" transform="translate(727 225)">
      <path d="M.1 16.7L8.7 11.8M19.6 5.5L28.2.5"/>
    </g>
    <circle cx="664.5" cy="364.8" r="15.1" fill="#FFF" fill-rule="nonzero"/>
    <g stroke="#00354C" stroke-linecap="round" stroke-linejoin="round" stroke-width="3" transform="translate(645 342)">
      <g transform="translate(19)">
        <path d="M.5.8L.5 12.9M.5 32.6L.5 44.7"/>
      </g>
      <g transform="translate(0 11)">
        <path d="M.5.8L11 6.8M28.1 16.7L38.6 22.7"/>
      </g>
      <g transform="translate(0 11)">
        <path d="M.5 23.4L11 16.7M28.1 6.8L38.6.8"/>
      </g>
    </g>
    <path stroke="#00354C" stroke-linecap="round" stroke-linejoin="round" stroke-width="4" d="M438.5 40.9L438.5 55.6M445.8 48.2L431.2 48.2"/>
    <path stroke="#001932" stroke-linecap="round" stroke-linejoin="round" stroke-width="4" d="M777.7 555.1L777.7 569.8M785 562.5L770.3 562.5M263.2 296L263.2 305M267.7 300.5L258.7 300.5"/>
    <rect width="10" height="10" x="216.316" y="368.353" fill="#001932" fill-rule="nonzero" transform="rotate(45 221.316 373.352)"/>
    <path stroke="#001932" stroke-linecap="round" stroke-linejoin="round" stroke-width="4" d="M.1 331.2L26.5 331.2M35.5 331.2L45.6 331.2M14.8 344L44 344M572.2 455.1L598.5 455.1M607.5 455.1L617.6 455.1M586.8 465.8L616.1 465.8"/>
    <path stroke="#001932" stroke-linecap="round" stroke-linejoin="round" stroke-width="6" d="M653 684.2L694.3 684.2M109 684.2L191.7 684.2"/>
    <circle cx="588.5" cy="92.7" r="51.7" fill="#001932" fill-rule="nonzero"/>
    <circle cx="640.2" cy="51.7" r="51.7" fill="#001932" fill-rule="nonzero"/>
    <circle cx="711.9" cy="70.2" r="47.2" fill="#001932" fill-rule="nonzero"/>
    <circle cx="640.2" cy="122" r="51.5" fill="#001932" fill-rule="nonzero"/>
    <circle cx="695" cy="122" r="34.3" fill="#001932" fill-rule="nonzero"/>
    <path fill="#001932" fill-rule="nonzero" d="M586.8 227.6C586.8 235.4 584.8 240.1 577 240.1 569.2 240.1 562.8 237.1 562.8 229.3 562.8 221.5 566.9 214.5 574.8 214.5 582.7 214.5 586.8 219.8 586.8 227.6zM614.9 188.7C614.9 200.5 612 207.5 600.2 207.5 588.4 207.5 579 203 579 191.2 579 179.4 588.5 169.9 600.3 169.9 612.1 169.9 614.9 177 614.9 188.7z"/>
    <g transform="translate(280 175)">
      <path fill="#FFF" fill-rule="nonzero" d="M325,365.2 C325.2,367.9 325.3,370.6 325.3,373.3 C325.3,429.2 280.3,474.6 224.8,474.6 C178.2,474.6 139,442.6 127.6,399.2 C131.7,451.3 175,492.4 227.8,492.4 C283.3,492.4 328.3,447.1 328.3,391.1 C328.4,382.1 327.2,373.5 325,365.2 Z"/>
      <path stroke="#001932" stroke-linecap="round" stroke-linejoin="round" stroke-width="6" d="M325,365.2 C325.2,367.9 325.3,370.6 325.3,373.3 C325.3,429.2 280.3,474.6 224.8,474.6 C178.2,474.6 139,442.6 127.6,399.2 C131.7,451.3 175,492.4 227.8,492.4 C283.3,492.4 328.3,447.1 328.3,391.1 C328.4,382.1 327.2,373.5 325,365.2 Z"/>
      <path fill="#FFF" fill-rule="nonzero" d="M149.3,274.2 C132.3,266.6 102.7,322.6 95.8,364.2 C90.1,398.3 92,429.6 100.7,449.5 L149.3,274.2 Z"/>
      <path stroke="#001932" stroke-linecap="round" stroke-linejoin="round" stroke-width="6" d="M149.3,274.2 C132.3,266.6 102.7,322.6 95.8,364.2 C90.1,398.3 92,429.6 100.7,449.5 L149.3,274.2 Z"/>
      <path fill="#FFF" fill-rule="nonzero" d="M201.7,274.2 C218.7,266.6 248.3,322.6 255.2,364.2 C260.9,398.3 259,429.6 250.3,449.5 L201.7,274.2 Z"/>
      <path fill="#D1D1D1" fill-rule="nonzero" d="M247.9,350.8 C245,333.4 238.1,313.4 229.9,296.7 C241.3,315.3 251.6,341.8 255.3,364.2 C261,398.3 259.1,429.6 250.4,449.5 L245.2,430.7 C252,410.8 253,382 247.9,350.8 Z"/>
      <path stroke="#001932" stroke-linecap="round" stroke-linejoin="round" stroke-width="6" d="M201.7,274.2 C218.7,266.6 248.3,322.6 255.2,364.2 C260.9,398.3 259,429.6 250.3,449.5 L201.7,274.2 Z"/>
      <path fill="#FFF" fill-rule="nonzero" d="M253.3,457 C252.2,440.4 209,260.2 197.3,251.2 L176.2,251.2 L154.5,251.2 C142.8,260.2 99.5,440.3 98.5,457 C97.2,477.7 90.4,509.2 129.7,509.2 L176.2,509.2 L222.2,509.2 C261.4,509.2 254.6,477.7 253.3,457 Z"/>
      <path fill="#D1D1D1" fill-rule="nonzero" d="M103.2,431.5 C103.2,431.5 100.1,457.9 114.9,467.6 C126.5,475.3 136.7,478.4 155.8,481.9 C166.1,483.8 177.3,484.6 177.3,484.6 L178.5,508.3 L97.1,508.9 C97.1,508.9 95.7,475.6 97.7,465.6 C99.7,455.7 100.7,439.1 103.2,431.5 Z"/>
      <path fill="#D1D1D1" fill-rule="nonzero" d="M249.4,431.5 C249.4,431.5 252.5,457.9 237.7,467.6 C226.1,475.3 215.9,478.4 196.8,481.9 C186.5,483.8 175.3,484.6 175.3,484.6 L174.1,508.3 L255.5,508.9 C255.5,508.9 256.9,475.6 254.9,465.6 C252.9,455.7 251.9,439.1 249.4,431.5 Z"/>
      <path fill="#001932" fill-rule="nonzero" d="M211.6 287.5C209.1 286.8 206.7 286.4 204.6 286.4 192.4 286.4 182.7 292.9 182.7 307.9 182.7 323 204.6 340.9 216.8 340.9 220.1 340.9 223.2 340 226 338.4 221.1 320 216.1 302.2 211.6 287.5zM119.1 417.1C132.6 417.1 143.6 403.8 143.6 387.4 143.6 371.7 133.5 358.8 120.7 357.8 115.7 377.4 111 396.8 107.2 413.3 110.8 415.7 114.8 417.1 119.1 417.1z"/>
      <path fill="#D1D1D1" fill-rule="nonzero" d="M151.4,255.5 C151.4,255.5 158.5,261.2 174.8,261.2 C188,261.2 199.6,255.5 199.6,255.5 L198.6,251.6 L152.1,251.6 L151.4,255.5 Z"/>
      <path stroke="#001932" stroke-linecap="round" stroke-linejoin="round" stroke-width="6" d="M253.3,457 C252.2,440.4 209,260.2 197.3,251.2 L176.2,251.2 L154.5,251.2 C142.8,260.2 99.5,440.3 98.5,457 C97.2,477.7 90.4,509.2 129.7,509.2 L176.2,509.2 L222.2,509.2 C261.4,509.2 254.6,477.7 253.3,457 Z"/>
      <path fill="#FFF" fill-rule="nonzero" d="M251,179.2 C249.1,159.7 239.5,110.4 228.7,75.9 C211.5,20.8 191.3,6.4 179.6,4.9 C178.4,4.7 175.8,4.7 175.8,4.7 C175.8,4.7 173.3,4.7 172,4.9 C160.3,6.3 140.2,20.6 122.9,75.8 C112.1,110.3 102.6,159.7 100.6,179.3 C96.3,223.3 117.4,247.6 144.8,251.1 C152.6,252.1 168,252.1 175.8,252.1 C183.5,252.1 198.9,252.1 206.8,251.1 C234.1,247.5 255.3,223.2 251,179.2 Z"/>
      <ellipse cx="175.8" cy="204.6" fill="#D1D1D1" fill-rule="nonzero" rx="18.9" ry="14.9"/>
      <path fill="#D1D1D1" fill-rule="nonzero" d="M158.5 10.5C158.5 10.5 149.5 44.4 130.7 54.2 135.5 43.4 142 30.5 142 30.5 142 30.5 153.2 12 158.5 10.5zM179.6 5C179.6 5 204 47 224.3 63.1 224.3 63.1 219.7 33.3 215.2 24.3 210.7 15.3 188.7 2.2 179.6 5z"/>
      <path fill="#001932" fill-rule="nonzero" d="M127.8,166.3 C167.1,149.4 190.6,116.1 180.2,92 C172.9,75.1 150.9,67.2 124.9,69.8 C124.3,71.7 123.6,73.7 123,75.8 C113,107.8 104.1,152.5 101.3,174.4 C109.9,172.8 118.9,170.2 127.8,166.3 Z"/>
      <path stroke="#001932" stroke-linecap="round" stroke-linejoin="round" stroke-width="6" d="M232.1,212.1 C220.9,228.4 196.4,239.4 170.3,239.4 C146.1,239.4 131.6,225.2 123.1,207.5"/>
      <ellipse cx="175.8" cy="202" fill="#001932" fill-rule="nonzero" rx="23.7" ry="12.2"/>
      <path fill="#FFF" fill-rule="nonzero" d="M305.9,502.9 C290.7,488.6 261.5,481.5 233,483.7 C208.6,485.5 190.5,493.8 183.4,504.8 C182.2,506.7 183.7,509.2 186,509.2 L301.5,509.2 C306,509.2 308.7,505.5 305.9,502.9 Z"/>
      <path fill="#D1D1D1" fill-rule="nonzero" d="M305.1,502.7 C304.8,502.8 304.4,502.9 304,502.9 L188.5,502.9 C187.1,502.9 185.9,502.6 185,502 C184.7,502.3 184.3,502.6 184,502.9 C181.2,505.5 183.9,509.2 188.5,509.2 L304,509.2 C306.3,509.2 307.8,506.6 306.6,504.8 C306.1,504 305.6,503.3 305.1,502.7 Z"/>
      <path stroke="#001932" stroke-linecap="round" stroke-linejoin="round" stroke-width="6" d="M305.9,502.9 C290.7,488.6 261.5,481.5 233,483.7 C208.6,485.5 190.5,493.8 183.4,504.8 C182.2,506.7 183.7,509.2 186,509.2 L301.5,509.2 C306,509.2 308.7,505.5 305.9,502.9 Z"/>
      <path stroke="#00354C" stroke-linecap="round" stroke-linejoin="round" stroke-width="6" d="M243.4,498 L243.4,509"/>
      <path fill="#FFF" fill-rule="nonzero" d="M49,502.9 C64.2,488.6 93.4,481.5 121.9,483.7 C146.3,485.5 164.4,493.8 171.5,504.8 C172.7,506.7 171.2,509.2 168.9,509.2 L53.4,509.2 C48.9,509.2 46.2,505.5 49,502.9 Z"/>
      <path fill="#D1D1D1" fill-rule="nonzero" d="M170.1,502.7 C169.8,502.8 169.4,502.9 169,502.9 L53.5,502.9 C52.1,502.9 50.9,502.6 50,502 C49.7,502.3 49.3,502.6 49,502.9 C46.2,505.5 48.9,509.2 53.5,509.2 L169,509.2 C171.3,509.2 172.8,506.6 171.6,504.8 C171.1,504 170.6,503.3 170.1,502.7 Z"/>
      <path stroke="#001932" stroke-linecap="round" stroke-linejoin="round" stroke-width="6" d="M49 502.9C64.2 488.6 93.4 481.5 121.9 483.7 146.3 485.5 164.4 493.8 171.5 504.8 172.7 506.7 171.2 509.2 168.9 509.2L53.4 509.2C48.9 509.2 46.2 505.5 49 502.9zM251 179.2C249.1 159.7 239.5 110.4 228.7 75.9 211.5 20.8 191.3 6.4 179.6 4.9 178.4 4.7 175.8 4.7 175.8 4.7 175.8 4.7 173.3 4.7 172 4.9 160.3 6.3 140.2 20.6 122.9 75.8 112.1 110.3 102.6 159.7 100.6 179.3 96.3 223.3 117.4 247.6 144.8 251.1 152.6 252.1 168 252.1 175.8 252.1 183.5 252.1 198.9 252.1 206.8 251.1 234.1 247.5 255.3 223.2 251 179.2z"/>
      <path fill="#FFF" fill-rule="nonzero" d="M177.8,4.5 C177.8,4.5 212.7,-2.9 222.3,1.6 C232.2,6.2 250.1,41.3 242.7,55 C231.4,76 198.2,0 177.8,4.5 Z"/>
      <path stroke="#001932" stroke-linecap="round" stroke-linejoin="round" stroke-width="6" d="M177.8,4.5 C177.8,4.5 212.7,-2.9 222.3,1.6 C232.2,6.2 250.1,41.3 242.7,55 C231.4,76 198.2,0 177.8,4.5 Z"/>
      <path fill="#FFF" fill-rule="nonzero" d="M112.3,10.8 L160.6,9.4 C160.6,9.4 115.8,57.6 95.1,68 C74.4,78.4 95.6,10.7 112.3,10.8 Z"/>
      <path stroke="#001932" stroke-linecap="round" stroke-linejoin="round" stroke-width="6" d="M112.3,10.8 L160.6,9.4 C160.6,9.4 115.8,57.6 95.1,68 C74.4,78.4 95.6,10.7 112.3,10.8 Z"/>
      <ellipse cx="156.7" cy="112.5" fill="#FFF" fill-rule="nonzero" rx="5" ry="6.5"/>
      <ellipse cx="198.9" cy="112.5" fill="#00354C" fill-rule="nonzero" rx="5" ry="6.5"/>
      <path stroke="#001932" stroke-linecap="round" stroke-linejoin="round" stroke-width="6" d="M0.3,509.2 L347,509.2"/>
      <path fill="#001932" fill-rule="nonzero" d="M276.2,72 C276.2,77.6 274.8,80.9 269.2,80.9 C263.6,80.9 259.1,78.8 259.1,73.2 C259.1,67.6 263.6,63.1 269.2,63.1 C274.8,63.1 276.2,66.4 276.2,72 Z"/>
    </g>
    <path fill="#F6F6F4" fill-rule="nonzero" d="M692.8,88 C694.3,86.2 695.2,83.7 694.9,81 C694.4,76.8 688.7,74.7 686.3,74.2 C683.1,73.6 676.4,76.5 676.4,82 C676.4,82 676.4,82 676.4,82 C676.4,83.3 675.4,84.4 674.1,84.4 L628.6,84.4 C627.3,84.4 626.3,83.3 626.3,82.1 C626.3,80.9 626.1,79.6 625.5,78.3 C624.2,75.3 620.9,74.9 618,74.6 C613,74 607.7,76.5 607.7,82 C607.7,84.3 608.5,86.3 609.9,87.9 C610.8,89 610.8,90.6 609.9,91.7 C608.4,93.5 607.5,96 607.8,98.7 C608.3,102.9 612.3,104.7 616.1,105.1 C621.1,105.7 626.3,103.1 626.3,97.7 C626.3,97.7 626.3,97.7 626.3,97.7 C626.3,96.4 627.3,95.3 628.6,95.3 L674.1,95.3 C675.4,95.3 676.4,96.4 676.4,97.6 C676.4,98.8 676.6,100.1 677.2,101.4 C678.5,104.4 683.2,105.1 685,105.5 C688.2,106.1 694.9,103.2 694.9,97.7 C694.9,95.4 694.1,93.4 692.7,91.8 C691.9,90.7 691.9,89.1 692.8,88 Z"/>
  </g>
</svg>
